<svg id="Layer_1" data-name="Layer 1" xmlns="http://www.w3.org/2000/svg" xmlns:xlink="http://www.w3.org/1999/xlink" viewBox="0 0 269.78 120.52">
  <defs>
    <style>
      .cls-1 {
        fill: url(#linear-gradient);
      }

      .cls-2 {
        fill: #fff;
      }
    </style>
    <linearGradient id="linear-gradient" x1="105.93" y1="28.91" x2="163.89" y2="86.87" gradientUnits="userSpaceOnUse">
      <stop offset="0" stop-color="#ff007e"/>
      <stop offset="0" stop-color="#fd007f"/>
      <stop offset="0.12" stop-color="#d10295"/>
      <stop offset="0.25" stop-color="#ac04a8"/>
      <stop offset="0.38" stop-color="#8d05b8"/>
      <stop offset="0.51" stop-color="#7507c4"/>
      <stop offset="0.65" stop-color="#6407cc"/>
      <stop offset="0.81" stop-color="#5a08d1"/>
      <stop offset="1" stop-color="#5708d3"/>
    </linearGradient>
  </defs>
  <title>rgb-abt-logo-lockup-vertical-color-inverted</title>
  <path class="cls-1" d="M134.84,10l52.91,53,5-5L134.84,0l-19.9,19.9,28.62,28.68a82.88,82.88,0,0,0-24.06-3.52,80.6,80.6,0,0,0-23,3.27l14.75-14.75-5-5L77,57.82h0l5,5c2.15-1.57,15.57-10.73,37.46-10.73,21.55,0,35.67,8.91,38.2,10.62l5.05-5L125,19.9Z"/>
  <g>
    <g>
      <polygon class="cls-2" points="87.23 91.49 86.9 92.19 74 120.08 78.7 120.08 81.11 114.79 81.11 114.78 82.01 112.81 82.01 112.81 84.68 106.98 84.69 106.98 88.89 97.77 93.24 107.33 93.24 107.33 95.75 112.81 95.75 112.81 96.46 114.36 96.46 114.37 99.05 120.08 103.86 120.08 90.64 91.49 87.23 91.49"/>
      <polygon class="cls-2" points="127.82 111.98 111.72 91.67 108.09 91.67 108.09 120.08 112.38 120.08 112.38 99.29 128.86 120.08 132.12 120.08 132.12 91.67 127.82 91.67 127.82 111.98"/>
      <polygon class="cls-2" points="27.75 95.89 36.8 95.89 36.8 120.08 41.17 120.08 41.17 95.89 50.22 95.89 50.22 91.67 27.75 91.67 27.75 95.89"/>
      <polygon class="cls-2" points="13.22 91.49 12.89 92.19 0 120.08 4.7 120.08 8 112.81 8.01 112.81 11.76 104.63 11.76 104.63 14.89 97.77 19.46 107.83 21.75 112.81 21.75 112.81 21.91 113.18 21.92 113.18 21.92 113.19 25.05 120.08 29.86 120.08 16.64 91.49 13.22 91.49"/>
      <polygon class="cls-2" points="238.4 91.67 238.4 95.89 247.45 95.89 247.45 120.08 251.82 120.08 251.82 95.89 260.87 95.89 260.87 91.67 238.4 91.67"/>
      <path class="cls-2" d="M193.91,112.65a14,14,0,0,1-3.72,2.76,10,10,0,0,1-4.36.93,9.4,9.4,0,0,1-6.92-3,10.83,10.83,0,0,1-2.84-7.47v-.07a10.75,10.75,0,0,1,2.81-7.42,9.33,9.33,0,0,1,6.91-3,10.06,10.06,0,0,1,4.46,1,13.12,13.12,0,0,1,3.45,2.51l.87.84,3.1-3.18-.92-.85a17.91,17.91,0,0,0-4.63-3.21,14.84,14.84,0,0,0-6.29-1.26,13.87,13.87,0,0,0-10.19,4.34,15,15,0,0,0-4,10.3V106a14.76,14.76,0,0,0,4,10.31,13.78,13.78,0,0,0,10.12,4.26,14.37,14.37,0,0,0,6.37-1.36,17.67,17.67,0,0,0,4.8-3.51l.88-.88-3.05-3Z"/>
      <polygon class="cls-2" points="136.34 95.89 145.39 95.89 145.39 120.08 149.76 120.08 149.76 95.89 158.81 95.89 158.81 91.67 136.34 91.67 136.34 95.89"/>
      <rect class="cls-2" x="163.03" y="91.67" width="4.37" height="28.41"/>
      <polygon class="cls-2" points="58.81 91.67 54.44 91.67 54.44 120.08 69.78 120.08 71.73 115.86 58.81 115.86 58.81 91.67"/>
      <path class="cls-2" d="M235.7,108.83a6.85,6.85,0,0,0-2.6-3,10.05,10.05,0,0,0-1.06-.61,8.15,8.15,0,0,0,1.1-1,7.36,7.36,0,0,0,1.7-4.87v-.08a6.79,6.79,0,0,0-2-4.94,10.6,10.6,0,0,0-7.61-2.66H213.26v28.41h12.5a12.38,12.38,0,0,0,7.49-2.16,7.51,7.51,0,0,0,3-6.15v-.07A7,7,0,0,0,235.7,108.83ZM217.63,95.89h7.53A6.68,6.68,0,0,1,229.23,97a3,3,0,0,1,.9,1.07,3.3,3.3,0,0,1,.3,1.42v.07a4.05,4.05,0,0,1-.37,1.76,3.71,3.71,0,0,1-1.79,1.7,7.52,7.52,0,0,1-3.29.66h-7.35Zm14.25,15.88a3.44,3.44,0,0,1-.38,1.65,3.9,3.9,0,0,1-1.93,1.73,8.93,8.93,0,0,1-3.74.71h-8.2v-8h7.57a9.79,9.79,0,0,1,5.21,1.14,3.16,3.16,0,0,1,1.11,1.14,3.2,3.2,0,0,1,.36,1.55Z"/>
    </g>
  </g>
</svg>
